<svg width="21" height="21" viewBox="0 0 21 21" fill="none" xmlns="http://www.w3.org/2000/svg">
<path d="M8.745 0.4425C9.435 -0.1475 10.565 -0.1475 11.265 0.4425L12.845 1.8025C13.145 2.0625 13.705 2.2725 14.105 2.2725H15.805C16.865 2.2725 17.735 3.1425 17.735 4.2025V5.9025C17.735 6.2925 17.945 6.8625 18.205 7.1625L19.565 8.7425C20.155 9.4325 20.155 10.5625 19.565 11.2625L18.205 12.8425C17.945 13.1425 17.735 13.7025 17.735 14.1025V15.8025C17.735 16.8625 16.865 17.7325 15.805 17.7325H14.105C13.715 17.7325 13.145 17.9425 12.845 18.2025L11.265 19.5625C10.575 20.1525 9.445 20.1525 8.745 19.5625L7.165 18.2025C6.865 17.9425 6.305 17.7325 5.905 17.7325H4.175C3.115 17.7325 2.245 16.8625 2.245 15.8025V14.0925C2.245 13.7025 2.035 13.1425 1.785 12.8425L0.435 11.2525C-0.145 10.5625 -0.145 9.4425 0.435 8.7525L1.785 7.1625C2.035 6.8625 2.245 6.3025 2.245 5.9125V4.1925C2.245 3.1325 3.115 2.2625 4.175 2.2625H5.905C6.295 2.2625 6.865 2.0525 7.165 1.7925L8.745 0.4425Z" fill="#FF8D00"/>
<path d="M6.375 9.99251L8.785 12.4125L13.615 7.57251" stroke="white" stroke-width="1.5" stroke-linecap="round" stroke-linejoin="round"/>
</svg>
