<svg width="20" height="26" viewBox="0 0 20 26" fill="none" xmlns="http://www.w3.org/2000/svg">
<path d="M15.4605 10.5815C15.4605 10.5815 15.2202 11.7831 11.6156 16.5892C8.13115 21.1551 13.1776 24.5194 13.7784 25H13.8985C14.6195 24.3992 23.7512 18.6319 15.4605 10.5815Z" fill="#007A70" stroke="#007A70" stroke-miterlimit="10" stroke-linecap="round" stroke-linejoin="round"/>
<path d="M11.5768 7.93821C11.5768 5.17467 10.4954 2.65144 9.41406 1.20959C9.0536 0.849127 8.45283 0.969281 8.33268 1.4499C7.85206 3.2522 6.41021 7.09713 2.92575 11.663C-1.51994 17.4304 2.56529 23.6784 6.77068 24.8799C9.0536 25.4807 6.16991 23.6784 5.80944 19.9536C5.44898 15.2676 11.5768 11.7831 11.5768 7.93821Z" stroke="#031220" stroke-width="1.5" stroke-miterlimit="10" stroke-linecap="round" stroke-linejoin="round"/>
</svg>
