<?xml version="1.0" encoding="iso-8859-1"?>
<!-- Generator: Adobe Illustrator 19.0.0, SVG Export Plug-In . SVG Version: 6.00 Build 0)  -->
<svg version="1.1" id="Capa_1" xmlns="http://www.w3.org/2000/svg" xmlns:xlink="http://www.w3.org/1999/xlink" x="0px" y="0px"
	 viewBox="0 0 512 512" style="enable-background:new 0 0 512 512;" xml:space="preserve">
<g><g><path d="M448.8,0h-337.4c-34.848,0-63.2,28.352-63.2,63.2v385.601c0,34.848,28.352,63.199,63.199,63.199h337.4
			c8.285,0,15-6.716,15-15v-96.399V15C463.8,6.716,457.086,0,448.8,0z M78.201,63.2c0-18.306,14.895-33.2,33.199-33.2h322.4v355.601
			H111.4c-12.172,0-23.543,3.468-33.199,9.453V63.2z M111.401,482c-18.307,0-33.2-14.893-33.2-33.199
			c0-18.307,14.893-33.2,33.199-33.2h322.4V482H111.401z"/></g></g><g><g><path d="M352.401,96.399H159.6c-8.283,0-15,6.716-15,15s6.717,15,15,15h192.801c8.285,0,15-6.716,15-15
			S360.685,96.399,352.401,96.399z"/></g></g><g></g><g></g><g></g><g></g><g></g><g></g><g></g><g></g><g></g><g></g><g></g><g></g><g></g><g></g><g></g></svg>
