<svg width="14" height="12" viewBox="0 0 14 12" fill="none" xmlns="http://www.w3.org/2000/svg">
<path d="M9.01232 5.95416C9.01232 7.06709 8.11298 7.96642 7.00006 7.96642C5.88713 7.96642 4.98779 7.06709 4.98779 5.95416C4.98779 4.84123 5.88713 3.94189 7.00006 3.94189C8.11298 3.94189 9.01232 4.84123 9.01232 5.95416Z" stroke="#5F6160" stroke-width="1.3" stroke-linecap="round" stroke-linejoin="round"/>
<path d="M7 10.6026C8.98416 10.6026 10.8334 9.43342 12.1206 7.40991C12.6265 6.61737 12.6265 5.28523 12.1206 4.49269C10.8334 2.46919 8.98416 1.30005 7 1.30005C5.01584 1.30005 3.16658 2.46919 1.87941 4.49269C1.37353 5.28523 1.37353 6.61737 1.87941 7.40991C3.16658 9.43342 5.01584 10.6026 7 10.6026Z" stroke="#5F6160" stroke-width="1.3" stroke-linecap="round" stroke-linejoin="round"/>
</svg>
