<svg id="Layer_1" enable-background="new 0 0 512 512" height="512" viewBox="0 0 512 512" width="512" xmlns="http://www.w3.org/2000/svg"><path d="m387.402 9h-262.804c-33.613 0-60.958 27.346-60.958 60.958v421.042c0 4.396 2.404 8.44 6.266 10.542 3.861 2.1 8.563 1.922 12.254-.467l173.84-112.504 173.841 112.503c1.978 1.28 4.246 1.926 6.52 1.926 1.969 0 3.942-.484 5.734-1.458 3.862-2.101 6.266-6.146 6.266-10.542v-421.042c-.001-33.612-27.346-60.958-60.959-60.958zm36.958 459.94-161.84-104.737c-1.983-1.284-4.251-1.926-6.52-1.926s-4.536.642-6.52 1.926l-161.84 104.737v-398.982c0-20.378 16.579-36.958 36.958-36.958h262.804c20.379 0 36.958 16.579 36.958 36.958z"/></svg>