<svg width="22" height="21" viewBox="0 0 22 21" fill="none" xmlns="http://www.w3.org/2000/svg">
<path d="M21 3.00759V15.0776C21 16.0376 20.22 16.9376 19.26 17.0576L18.93 17.0976C16.75 17.3876 13.39 18.4976 11.47 19.5576C11.21 19.7076 10.78 19.7076 10.51 19.5576L10.47 19.5376C8.54997 18.4876 5.20003 17.3876 3.03003 17.0976L2.73999 17.0576C1.77999 16.9376 1 16.0376 1 15.0776V2.99758C1 1.80758 1.96997 0.907591 3.15997 1.00759C5.25997 1.17759 8.43997 2.23762 10.22 3.34762L10.47 3.49758C10.76 3.67758 11.24 3.67758 11.53 3.49758L11.7 3.3876C12.33 2.9976 14.13 2.60759 15 2.25759V6.33761L16 5.00759L18 6.33761V1.11764C18.27 1.06764 18.53 1.0376 18.77 1.0176H18.83C20.02 0.917601 21 1.80759 21 3.00759Z" stroke="#031220" stroke-width="1.5" stroke-linecap="round" stroke-linejoin="round"/>
<path d="M11 3.82764V18.8276" stroke="#007A70" stroke-width="1.5" stroke-linecap="round" stroke-linejoin="round"/>
<path d="M18 1.11768V4.61768V8.11768L16.5 6.33412L15 8.11768V2.33765C15.9825 1.64032 17.0775 1.38588 18 1.11768Z" fill="#007A70" stroke="#007A70" stroke-width="1.5" stroke-linecap="round" stroke-linejoin="round"/>
</svg>
