<svg width="40" height="40" viewBox="0 0 40 40" fill="none" xmlns="http://www.w3.org/2000/svg">
<path d="M14.0801 0C8.84004 0 4.58002 4.26003 4.58002 9.50006C4.58002 14.6401 8.60004 18.8001 13.8401 18.9801C14.0001 18.9601 14.1601 18.9601 14.2801 18.9801C14.3201 18.9801 14.3401 18.9801 14.3801 18.9801C14.4001 18.9801 14.4001 18.9801 14.4201 18.9801C19.5401 18.8001 23.5601 14.6401 23.5801 9.50006C23.5801 4.26003 19.3201 0 14.0801 0Z" fill="#192A88"/>
<path d="M24.2401 24.2998C18.6601 20.5798 9.56006 20.5798 3.94002 24.2998C1.40001 25.9998 0 28.2998 0 30.7598C0 33.2198 1.40001 35.4998 3.92002 37.1799C6.72004 39.0599 10.4001 39.9999 14.0801 39.9999C17.7601 39.9999 21.4401 39.0599 24.2401 37.1799C26.7602 35.4798 28.1602 33.1998 28.1602 30.7198C28.1402 28.2598 26.7602 25.9798 24.2401 24.2998Z" fill="#192A88"/>
<path d="M35.0602 10.6802C35.3802 14.5603 32.6202 17.9603 28.8002 18.4203C28.7802 18.4203 28.7802 18.4203 28.7602 18.4203H28.7002C28.5802 18.4203 28.4602 18.4203 28.3602 18.4603C26.4202 18.5603 24.6402 17.9403 23.3002 16.8003C25.3602 14.9603 26.5402 12.2002 26.3002 9.20023C26.1602 7.58022 25.6002 6.10021 24.7602 4.8402C25.5202 4.4602 26.4002 4.2202 27.3002 4.1402C31.2202 3.8002 34.7202 6.72021 35.0602 10.6802Z" fill="#FF7648"/>
<path d="M39.0602 29.1799C38.9002 31.1199 37.6602 32.7999 35.5802 33.9399C33.5802 35.0399 31.0602 35.5599 28.5602 35.4999C30.0002 34.1999 30.8402 32.5799 31.0002 30.8599C31.2002 28.3799 30.0202 25.9998 27.6601 24.0998C26.3201 23.0398 24.7601 22.1998 23.0601 21.5798C27.4801 20.2998 33.0402 21.1598 36.4602 23.9198C38.3002 25.3998 39.2402 27.2599 39.0602 29.1799Z" fill="#FF7648"/>
</svg>
