<svg width="46" height="46" viewBox="0 0 46 46" fill="none" xmlns="http://www.w3.org/2000/svg">
<path d="M32.2575 29.977C33.5417 29.1336 35.2283 30.0536 35.2283 31.587V34.0595C35.2283 36.4936 33.3308 39.1003 31.05 39.867L24.9358 41.8986C23.8625 42.2628 22.1183 42.2628 21.0642 41.8986L14.95 39.867C12.65 39.1003 10.7717 36.4936 10.7717 34.0595V31.5678C10.7717 30.0536 12.4583 29.1336 13.7233 29.9578L17.6717 32.5261C19.1858 33.542 21.1025 34.0403 23.0192 34.0403C24.9358 34.0403 26.8525 33.542 28.3667 32.5261L32.2575 29.977Z" fill="#FF7648"/>
<path d="M38.295 12.3817L26.8142 4.84924C24.7442 3.4884 21.3325 3.4884 19.2625 4.84924L7.72416 12.3817C4.02499 14.7776 4.02499 20.2017 7.72416 22.6167L10.7908 24.6101L19.2625 30.1301C21.3325 31.4909 24.7442 31.4909 26.8142 30.1301L35.2283 24.6101L37.8542 22.8851V28.7501C37.8542 29.5359 38.5058 30.1876 39.2917 30.1876C40.0775 30.1876 40.7292 29.5359 40.7292 28.7501V19.3201C41.4958 16.8476 40.71 13.9726 38.295 12.3817Z" fill="#192A88"/>
</svg>
