<svg width="50" height="38" viewBox="0 0 50 38" fill="none" xmlns="http://www.w3.org/2000/svg">
<path d="M14.6984 27.5676V25.3757H16.1609V27.5676H14.6984Z" fill="#031220" stroke="#F5F6F8" stroke-width="0.1"/>
<path d="M18.9289 27.5676V25.3757H20.3914V27.5676H18.9289Z" fill="#031220" stroke="#F5F6F8" stroke-width="0.1"/>
<path d="M17.5234 25.9512C14.1936 25.9512 11.7765 23.4538 11.7765 20.0065V19.0436H13.239V20.0065C13.239 21.2677 13.6787 22.3416 14.436 23.1004C15.1932 23.8591 16.2649 24.2997 17.5234 24.2997C18.7821 24.2997 19.8538 23.8591 20.611 23.1004C21.3682 22.3416 21.8078 21.2677 21.8078 20.0065V14.6279H23.2703V20.006C23.2707 23.4538 20.8532 25.9512 17.5234 25.9512Z" fill="#031220" stroke="#F5F6F8" stroke-width="0.1"/>
<path d="M15.2448 8.89414L25.4444 8.89327V12.1213C25.4444 14.2014 23.9423 15.8832 22.1085 15.8832H13.9511C13.5654 15.8832 13.262 16.2371 13.262 16.6588V23.2591L9.42375 18.0384V13.3221C9.42375 11.6064 10.6626 10.221 12.1734 10.221H12.6784H12.7032L12.7182 10.2013C13.3495 9.37396 14.2661 8.89414 15.2448 8.89414ZM10.8859 17.4764H10.911L11.7096 18.5626L11.7999 18.6854V18.533V16.6588C11.7999 15.3145 12.7704 14.2316 13.9515 14.2316H22.1085C23.1468 14.2316 23.9816 13.2789 23.9816 12.1213V10.5948V10.5448H23.9316L15.2445 10.5448L15.2444 10.5448C14.6109 10.5457 14.0256 10.9051 13.6774 11.5015C13.6774 11.5015 13.6774 11.5015 13.6774 11.5015L13.4607 11.8725H12.173C11.4577 11.8725 10.8859 12.5288 10.8859 13.3221V17.4264V17.4764Z" fill="#031220" stroke="#F5F6F8" stroke-width="0.1"/>
<path d="M42.9272 32.716V21.0804H44.3897V32.716H42.9272Z" fill="#031220" stroke="#F5F6F8" stroke-width="0.1"/>
<path d="M7.07152 32.7159H5.60862V6.08232C5.60862 4.82863 6.51389 3.81892 7.61448 3.81892H26.0965V5.4705H7.61487C7.3095 5.4705 7.07152 5.75095 7.07152 6.08232V32.7159Z" fill="#031220" stroke="#F5F6F8" stroke-width="0.1"/>
<path d="M10.2844 32.0648H8.82229V30.104C8.82229 28.2623 10.2812 26.7664 12.0711 26.7664H23.1184C24.9083 26.7664 26.3668 28.2627 26.3668 30.104V31.5266H24.9043V30.104C24.9043 29.1711 24.1002 28.418 23.1184 28.418H12.0707C11.0885 28.418 10.2844 29.1715 10.2844 30.104V32.0648Z" fill="#031220" stroke="#F5F6F8" stroke-width="0.1"/>
<path d="M0.34435 35.8766L0.344278 35.8765L0.05 35.6292V31.807H49.95V35.6292L49.6558 35.8773C49.5603 35.9573 49.0814 36.3514 48.4465 36.7253C47.81 37.1002 47.0245 37.4499 46.3141 37.4499H3.68516C2.9745 37.4499 2.18909 37.1002 1.55278 36.7252C0.918101 36.3512 0.439536 35.9568 0.34435 35.8766ZM1.5125 34.7592V34.7844L1.5328 34.7994C1.84194 35.0277 2.22749 35.2768 2.61064 35.469C2.99207 35.6603 3.3778 35.7988 3.68516 35.7988H46.3145C46.6216 35.7988 47.0073 35.6603 47.3888 35.469C47.772 35.2768 48.1578 35.0277 48.4676 34.7994L48.4879 34.7844V34.7592V33.509V33.459H48.4379H1.5625H1.5125V33.509V34.7592Z" fill="#031220" stroke="#F5F6F8" stroke-width="0.1"/>
<path d="M31.8141 23.2115V19.0489V18.9989H31.7641H30.2215C29.1088 18.9989 28.1863 17.876 28.1863 16.4732V2.57745C28.1863 1.17324 29.1089 0.05 30.2215 0.05H45.3773C46.4916 0.05 47.4164 1.17335 47.4164 2.57745V16.4732C47.4164 17.8759 46.492 18.9989 45.3773 18.9989H36.2426H36.2225L36.208 19.0127L31.8141 23.2115ZM30.1715 1.70158V1.70539C30.0271 1.72498 29.9017 1.82807 29.8117 1.97022C29.7108 2.12959 29.6488 2.34555 29.6488 2.57789V16.4732C29.6488 16.7051 29.7108 16.9206 29.8117 17.0797C29.912 17.2377 30.0562 17.3473 30.2215 17.3473H33.2766V19.5336V19.6506L33.3611 19.5698L35.6865 17.3473H45.3769C45.543 17.3473 45.6882 17.2379 45.7893 17.0798C45.891 16.9208 45.9535 16.7052 45.9535 16.4732V2.57745C45.9535 2.34526 45.8911 2.12925 45.7895 1.96982C45.6885 1.81136 45.5433 1.70158 45.3769 1.70158H30.2215H30.1715Z" fill="#3D6CE7" stroke="#F5F6F8" stroke-width="0.1"/>
<path d="M36.2705 6.36712L36.1933 6.3168V6.40902V11.6887V11.7809L36.2705 11.7306L40.3256 9.09143L40.39 9.04954L40.3256 9.00763L36.2705 6.36712ZM43.318 9.04952L34.7308 14.6386V3.45831L43.318 9.04952Z" fill="#3D6CE7" stroke="#F5F6F8" stroke-width="0.1"/>
</svg>
