<svg x="0px" y="0px"
	 viewBox="0 0 67.4 70.6" xml:space="preserve">
<path class="st0" d="M59.7,25.4c0,0.1,0.4,2.8,6.4,12.2c0.6,0.8,0.8,1.8,0.6,2.8c-0.1,0.5-0.4,1-0.7,1.4c-0.3,0.4-0.8,0.8-1.2,1
	c-1.7,0.9-3.4,1.8-5.2,2.5c0.4,3.7,0.4,7.4,0,11.1c-0.7,3.7-7.1,4.3-10.8,4.3c-0.3,0-0.7,0-1,0.1c-0.3,0.1-0.6,0.3-0.8,0.5
	c-0.2,0.2-0.4,0.5-0.5,0.8c-0.1,0.3-0.2,0.6-0.1,1v5c0,0.1,0,0.3-0.1,0.4c0,0.1-0.1,0.2-0.2,0.4c-0.1,0.1-0.2,0.2-0.3,0.2
	c-0.1,0.1-0.3,0.1-0.4,0.1s-0.3,0-0.4-0.1c-0.1-0.1-0.2-0.1-0.3-0.2c-0.1-0.1-0.2-0.2-0.2-0.4c0-0.1-0.1-0.3-0.1-0.4v-5
	c0-0.6,0.1-1.2,0.3-1.8c0.2-0.6,0.6-1.1,1-1.5c0.4-0.4,1-0.7,1.5-0.9c0.6-0.2,1.2-0.3,1.8-0.2c4.9,0,8.4-1,8.7-2.6
	c0.7-3.6-0.1-10.8-0.1-11.3c0,0,0,0,0,0c0-0.2,0-0.5,0.1-0.7c0.1-0.2,0.3-0.3,0.5-0.4c1.9-0.8,3.8-1.7,5.6-2.7
	c0.2-0.1,0.4-0.3,0.6-0.4c0.2-0.2,0.3-0.4,0.4-0.6c0.1-0.4,0-0.9-0.3-1.2c-6.4-10.1-6.8-12.9-6.8-13.2C55.1,4.4,38,2.7,32.8,2.7
	c-0.5,0-0.9,0-1.2,0l0,0c-0.2,0-0.4,0-0.5,0c-3.2,0-15.6,0.7-21.9,10.1h11c0.8,0,1.6,0.2,2.3,0.6c0.7,0.4,1.3,0.9,1.8,1.5
	c0.5-0.6,1.1-1.2,1.8-1.5c0.7-0.4,1.5-0.6,2.3-0.6h18c0.3,0,0.5,0.1,0.7,0.3c0.2,0.2,0.3,0.5,0.3,0.7V52c0,0.1,0,0.3-0.1,0.4
	c-0.1,0.1-0.1,0.2-0.2,0.3c-0.1,0.1-0.2,0.2-0.3,0.2c-0.1,0.1-0.3,0.1-0.4,0.1h-18c-0.8,0-1.6,0.3-2.2,0.9s-0.9,1.4-0.9,2.2
	c0,0.3-0.1,0.5-0.3,0.7c-0.2,0.2-0.5,0.3-0.7,0.3c-0.3,0-0.5-0.1-0.7-0.3c-0.2-0.2-0.3-0.4-0.3-0.7c0-0.8-0.3-1.6-0.9-2.2
	c-0.6-0.6-1.4-0.9-2.2-0.9h-4.5c0,0,0,0,0,0.1c0,0,0.1,0.1,0.1,0.1c2.2,4.8,2.3,14.5,2.3,14.9c0,0.3-0.1,0.5-0.3,0.7
	c-0.2,0.2-0.5,0.3-0.7,0.3h0c-0.3,0-0.5-0.1-0.7-0.3c-0.2-0.2-0.3-0.5-0.3-0.7l0,0c0-0.2-0.1-9.7-2.1-14c-0.2-0.4-0.4-0.7-0.6-1.1
	H2.2c-0.3,0-0.5-0.1-0.7-0.3c-0.2-0.2-0.3-0.5-0.3-0.7V13.9c0-0.3,0.1-0.5,0.3-0.7c0.2-0.2,0.5-0.3,0.7-0.3h4.5
	C13.5,1.2,28.8,0.7,31,0.7l0.5,0c0.3,0,0.8,0,1.3,0C38.4,0.7,57,2.5,59.7,25.4z M26.2,15.8c-0.6,0.6-0.9,1.4-0.9,2.2v34
	c0.9-0.7,2-1,3.1-1h17V14.9h-17C27.6,14.9,26.8,15.2,26.2,15.8z M22.4,15.8c-0.6-0.6-1.4-0.9-2.2-0.9h-17V51h17c1.1,0,2.2,0.4,3.1,1
	V18C23.3,17.2,22.9,16.4,22.4,15.8z M7.7,22.2h11.1c0.3,0,0.5-0.1,0.7-0.3c0.2-0.2,0.3-0.5,0.3-0.7c0-0.3-0.1-0.5-0.3-0.7
	c-0.2-0.2-0.5-0.3-0.7-0.3H7.7c-0.3,0-0.5,0.1-0.7,0.3s-0.3,0.5-0.3,0.7c0,0.3,0.1,0.5,0.3,0.7C7.2,22.1,7.4,22.2,7.7,22.2z
	 M7.7,30.1h11.1c0.3,0,0.5-0.1,0.7-0.3c0.2-0.2,0.3-0.5,0.3-0.7s-0.1-0.5-0.3-0.7C19.3,28.1,19,28,18.8,28H7.7
	c-0.3,0-0.5,0.1-0.7,0.3c-0.2,0.2-0.3,0.5-0.3,0.7s0.1,0.5,0.3,0.7C7.1,30,7.4,30.1,7.7,30.1z M18.8,37.9H7.7c-0.1,0-0.3,0-0.4-0.1
	c-0.1-0.1-0.2-0.1-0.3-0.2c-0.1-0.1-0.2-0.2-0.2-0.3c-0.1-0.1-0.1-0.3-0.1-0.4c0-0.1,0-0.3,0.1-0.4c0.1-0.1,0.1-0.2,0.2-0.3
	c0.1-0.1,0.2-0.2,0.3-0.2c0.1-0.1,0.3-0.1,0.4-0.1h11.1c0.1,0,0.3,0,0.4,0.1c0.1,0.1,0.2,0.1,0.3,0.2c0.1,0.1,0.2,0.2,0.2,0.3
	c0.1,0.1,0.1,0.3,0.1,0.4c0,0.1,0,0.3-0.1,0.4c-0.1,0.1-0.1,0.2-0.2,0.3c-0.1,0.1-0.2,0.2-0.3,0.2C19,37.9,18.9,37.9,18.8,37.9z
	 M7.7,45.8h11.1c0.3,0,0.5-0.1,0.7-0.3c0.2-0.2,0.3-0.5,0.3-0.7s-0.1-0.5-0.3-0.7c-0.2-0.2-0.5-0.3-0.7-0.3H7.7
	c-0.3,0-0.5,0.1-0.7,0.3c-0.2,0.2-0.3,0.5-0.3,0.7s0.1,0.5,0.3,0.7C7.1,45.7,7.4,45.8,7.7,45.8z M40.9,22.2H29.8
	c-0.3,0-0.5-0.1-0.7-0.3c-0.2-0.2-0.3-0.5-0.3-0.7c0-0.3,0.1-0.5,0.3-0.7c0.2-0.2,0.5-0.3,0.7-0.3h11.1c0.3,0,0.5,0.1,0.7,0.3
	s0.3,0.5,0.3,0.7c0,0.3-0.1,0.5-0.3,0.7C41.5,22.1,41.2,22.2,40.9,22.2z M29.8,30.1h11.1c0.3,0,0.5-0.1,0.7-0.3
	c0.2-0.2,0.3-0.5,0.3-0.7s-0.1-0.5-0.3-0.7c-0.2-0.2-0.5-0.3-0.7-0.3H29.8c-0.3,0-0.5,0.1-0.7,0.3c-0.2,0.2-0.3,0.5-0.3,0.7
	s0.1,0.5,0.3,0.7C29.3,30,29.6,30.1,29.8,30.1z M40.9,37.9H29.8c-0.1,0-0.3,0-0.4-0.1c-0.1-0.1-0.2-0.1-0.3-0.2
	c-0.1-0.1-0.2-0.2-0.2-0.3c-0.1-0.1-0.1-0.3-0.1-0.4c0-0.1,0-0.3,0.1-0.4c0.1-0.1,0.1-0.2,0.2-0.3c0.1-0.1,0.2-0.2,0.3-0.2
	c0.1-0.1,0.3-0.1,0.4-0.1h11.1c0.1,0,0.3,0,0.4,0.1c0.1,0.1,0.2,0.1,0.3,0.2c0.1,0.1,0.2,0.2,0.2,0.3c0.1,0.1,0.1,0.3,0.1,0.4
	c0,0.1,0,0.3-0.1,0.4c-0.1,0.1-0.1,0.2-0.2,0.3c-0.1,0.1-0.2,0.2-0.3,0.2C41.2,37.9,41,37.9,40.9,37.9z M29.8,45.8h5.5
	c0.3,0,0.5-0.1,0.7-0.3c0.2-0.2,0.3-0.5,0.3-0.7s-0.1-0.5-0.3-0.7c-0.2-0.2-0.5-0.3-0.7-0.3h-5.5c-0.3,0-0.5,0.1-0.7,0.3
	c-0.2,0.2-0.3,0.5-0.3,0.7s0.1,0.5,0.3,0.7C29.3,45.7,29.6,45.8,29.8,45.8z"/>
<path class="st1" d="M7.7,22.2h11.1c0.3,0,0.5-0.1,0.7-0.3c0.2-0.2,0.3-0.5,0.3-0.7c0-0.3-0.1-0.5-0.3-0.7c-0.2-0.2-0.5-0.3-0.7-0.3
	H7.7c-0.3,0-0.5,0.1-0.7,0.3s-0.3,0.5-0.3,0.7c0,0.3,0.1,0.5,0.3,0.7C7.2,22.1,7.4,22.2,7.7,22.2z"/>
<path class="st1" d="M7.7,30.1h11.1c0.3,0,0.5-0.1,0.7-0.3c0.2-0.2,0.3-0.5,0.3-0.7s-0.1-0.5-0.3-0.7C19.3,28.1,19,28,18.8,28H7.7
	c-0.3,0-0.5,0.1-0.7,0.3c-0.2,0.2-0.3,0.5-0.3,0.7s0.1,0.5,0.3,0.7C7.1,30,7.4,30.1,7.7,30.1z"/>
<path class="st1" d="M7.7,37.9h11.1c0.1,0,0.3,0,0.4-0.1c0.1-0.1,0.2-0.1,0.3-0.2c0.1-0.1,0.2-0.2,0.2-0.3c0.1-0.1,0.1-0.3,0.1-0.4
	c0-0.1,0-0.3-0.1-0.4c-0.1-0.1-0.1-0.2-0.2-0.3c-0.1-0.1-0.2-0.2-0.3-0.2c-0.1-0.1-0.3-0.1-0.4-0.1H7.7c-0.1,0-0.3,0-0.4,0.1
	C7.2,36,7.1,36.1,7,36.2c-0.1,0.1-0.2,0.2-0.2,0.3c-0.1,0.1-0.1,0.3-0.1,0.4c0,0.1,0,0.3,0.1,0.4c0.1,0.1,0.1,0.2,0.2,0.3
	c0.1,0.1,0.2,0.2,0.3,0.2C7.4,37.9,7.6,37.9,7.7,37.9L7.7,37.9z"/>
<path class="st1" d="M7.7,45.8h11.1c0.3,0,0.5-0.1,0.7-0.3c0.2-0.2,0.3-0.5,0.3-0.7s-0.1-0.5-0.3-0.7c-0.2-0.2-0.5-0.3-0.7-0.3H7.7
	c-0.3,0-0.5,0.1-0.7,0.3c-0.2,0.2-0.3,0.5-0.3,0.7s0.1,0.5,0.3,0.7C7.1,45.7,7.4,45.8,7.7,45.8L7.7,45.8z"/>
<path class="st1" d="M29.8,22.2h11.1c0.3,0,0.5-0.1,0.7-0.3c0.2-0.2,0.3-0.5,0.3-0.7c0-0.3-0.1-0.5-0.3-0.7s-0.5-0.3-0.7-0.3H29.8
	c-0.3,0-0.5,0.1-0.7,0.3c-0.2,0.2-0.3,0.5-0.3,0.7c0,0.3,0.1,0.5,0.3,0.7C29.3,22.1,29.6,22.2,29.8,22.2L29.8,22.2z"/>
<path class="st1" d="M29.8,30.1h11.1c0.3,0,0.5-0.1,0.7-0.3c0.2-0.2,0.3-0.5,0.3-0.7s-0.1-0.5-0.3-0.7c-0.2-0.2-0.5-0.3-0.7-0.3
	H29.8c-0.3,0-0.5,0.1-0.7,0.3c-0.2,0.2-0.3,0.5-0.3,0.7s0.1,0.5,0.3,0.7C29.3,30,29.6,30.1,29.8,30.1z"/>
<path class="st1" d="M29.8,37.9h11.1c0.1,0,0.3,0,0.4-0.1c0.1-0.1,0.2-0.1,0.3-0.2c0.1-0.1,0.2-0.2,0.2-0.3c0.1-0.1,0.1-0.3,0.1-0.4
	c0-0.1,0-0.3-0.1-0.4c-0.1-0.1-0.1-0.2-0.2-0.3c-0.1-0.1-0.2-0.2-0.3-0.2c-0.1-0.1-0.3-0.1-0.4-0.1H29.8c-0.1,0-0.3,0-0.4,0.1
	c-0.1,0.1-0.2,0.1-0.3,0.2c-0.1,0.1-0.2,0.2-0.2,0.3c-0.1,0.1-0.1,0.3-0.1,0.4c0,0.1,0,0.3,0.1,0.4c0.1,0.1,0.1,0.2,0.2,0.3
	c0.1,0.1,0.2,0.2,0.3,0.2C29.6,37.9,29.7,37.9,29.8,37.9L29.8,37.9z"/>
<path class="st1" d="M29.8,45.8h5.5c0.3,0,0.5-0.1,0.7-0.3c0.2-0.2,0.3-0.5,0.3-0.7s-0.1-0.5-0.3-0.7c-0.2-0.2-0.5-0.3-0.7-0.3h-5.5
	c-0.3,0-0.5,0.1-0.7,0.3c-0.2,0.2-0.3,0.5-0.3,0.7s0.1,0.5,0.3,0.7C29.3,45.7,29.6,45.8,29.8,45.8L29.8,45.8z"/>
</svg>