<svg width="44" height="41" viewBox="0 0 44 41" fill="none" xmlns="http://www.w3.org/2000/svg">
<path d="M23.3422 18.3518C23.5378 18.3322 23.7725 18.3322 23.9877 18.3518C28.6435 18.1953 32.3408 14.3806 32.3408 9.68568C32.3408 4.89291 28.4675 1 23.6551 1C18.8624 1 14.9695 4.89291 14.9695 9.68568C14.989 14.3806 18.6863 18.1953 23.3422 18.3518Z" stroke="#031220" stroke-width="1.6" stroke-linecap="round" stroke-linejoin="round"/>
<path d="M10.8983 4.91248C7.10324 4.91248 4.05152 7.98376 4.05152 11.7593C4.05152 15.4566 6.98587 18.4692 10.644 18.6061C10.8005 18.5866 10.9766 18.5866 11.1526 18.6061" stroke="#031220" stroke-width="1.6" stroke-linecap="round" stroke-linejoin="round"/>
<path d="M33.1235 25.5703C37.8576 28.7394 37.8576 33.9039 33.1235 37.0534C27.7438 40.6529 18.9212 40.6529 13.5416 37.0534C8.80748 33.8843 8.80748 28.7198 13.5416 25.5703C18.9016 21.9904 27.7243 21.9904 33.1235 25.5703Z" stroke="#031220" stroke-width="1.6" stroke-linecap="round" stroke-linejoin="round"/>
<path d="M7.12298 36.2123C5.71449 35.9188 4.38426 35.3515 3.28876 34.5103C0.237038 32.2215 0.237038 28.446 3.28876 26.1572C4.36469 25.3356 5.67537 24.7879 7.06429 24.4749" stroke="#031220" stroke-width="1.6" stroke-linecap="round" stroke-linejoin="round"/>
<path d="M35.8077 22.6875L37.3377 25.7729C37.5464 26.2024 38.1027 26.6143 38.5722 26.6932L41.3454 27.1578C43.1188 27.4558 43.5361 28.7531 42.2582 30.0328L40.1022 32.2066C39.7371 32.5747 39.5372 33.2847 39.6502 33.7931L40.2674 36.484C40.7542 38.614 39.6328 39.4379 37.7637 38.3247L35.1644 36.7733C34.6949 36.4928 33.9212 36.4928 33.4431 36.7733L30.8437 38.3247C28.9834 39.4379 27.8532 38.6052 28.34 36.484L28.9573 33.7931C29.0703 33.2847 28.8703 32.5747 28.5052 32.2066L26.3492 30.0328C25.08 28.7531 25.4886 27.4558 27.2621 27.1578L30.0353 26.6932C30.496 26.6143 31.0524 26.2024 31.261 25.7729L32.7911 22.6875C33.6256 21.0133 34.9818 21.0133 35.8077 22.6875Z" fill="#F5F6F8" stroke="#3D6CE7" stroke-width="1.5" stroke-linecap="round" stroke-linejoin="round"/>
</svg>
