<svg width="38" height="39" viewBox="0 0 38 39" fill="none" xmlns="http://www.w3.org/2000/svg">
<path d="M37 19.1667C37 9.23075 28.936 1.16675 19 1.16675C9.064 1.16675 1 9.23075 1 19.1667C1 29.1027 9.064 37.1667 19 37.1667" stroke="#031220" stroke-width="1.5" stroke-linecap="round" stroke-linejoin="round"/>
<path d="M11.8 2.9668H13.6C10.09 13.4788 10.09 24.8548 13.6 35.3668H11.8" stroke="#031220" stroke-width="1.5" stroke-linecap="round" stroke-linejoin="round"/>
<path d="M24.4 2.9668C26.146 8.2228 27.028 13.6948 27.028 19.1668" stroke="#031220" stroke-width="1.5" stroke-linecap="round" stroke-linejoin="round"/>
<path d="M2.80005 26.3667V24.5667C8.05605 26.3127 13.528 27.1947 19 27.1947" stroke="#031220" stroke-width="1.5" stroke-linecap="round" stroke-linejoin="round"/>
<path d="M2.80005 13.7665C13.312 10.2565 24.688 10.2565 35.2001 13.7665" stroke="#031220" stroke-width="1.5" stroke-linecap="round" stroke-linejoin="round"/>
<path d="M30.16 36.0867C33.3412 36.0867 35.92 33.5078 35.92 30.3267C35.92 27.1455 33.3412 24.5667 30.16 24.5667C26.9789 24.5667 24.4 27.1455 24.4 30.3267C24.4 33.5078 26.9789 36.0867 30.16 36.0867Z" stroke="#3D6CE7" stroke-width="2" stroke-linecap="round" stroke-linejoin="round"/>
<path d="M37.0001 37.1667L35.2001 35.3667" stroke="#3D6CE7" stroke-width="2" stroke-linecap="round" stroke-linejoin="round"/>
</svg>
