<svg width="28" height="27" viewBox="0 0 28 27" fill="none" xmlns="http://www.w3.org/2000/svg">
<path d="M11.4 19.746H6.47299C2.092 19.746 1 18.654 1 14.273V6.47299C1 2.092 2.092 1 6.47299 1H20.162C24.543 1 25.635 2.092 25.635 6.47299" stroke="#F4930E" stroke-width="1.7" stroke-linecap="round" stroke-linejoin="round"/>
<path d="M11.3999 25.6218V19.7458" stroke="#F4930E" stroke-width="1.7" stroke-linecap="round" stroke-linejoin="round"/>
<path d="M1 14.5459H11.4" stroke="#F4930E" stroke-width="1.7" stroke-linecap="round" stroke-linejoin="round"/>
<path d="M7.16211 25.6218H11.4001" stroke="#F4930E" stroke-width="1.7" stroke-linecap="round" stroke-linejoin="round"/>
<path d="M26.9999 14.3509V21.7739C26.9999 24.8549 26.2329 25.6219 23.152 25.6219H18.537C15.456 25.6219 14.689 24.8549 14.689 21.7739V14.3509C14.689 11.2699 15.456 10.5029 18.537 10.5029H23.152C26.2329 10.5029 26.9999 11.2699 26.9999 14.3509Z" stroke="#F4930E" stroke-width="1.7" stroke-linecap="round" stroke-linejoin="round"/>
<path d="M20.8179 21.4359H20.8296" stroke="#F4930E" stroke-width="2" stroke-linecap="round" stroke-linejoin="round"/>
</svg>
