<svg width="27" height="27" viewBox="0 0 27 27" fill="none" xmlns="http://www.w3.org/2000/svg">
<path d="M26 13.9961V15.1656C26 19.8436 24.8875 21 20.45 21H6.55C2.1125 21 1 19.8305 1 15.1656V6.83443C1 2.16951 2.1125 1 6.55 1H8.5" stroke="#6151FB" stroke-width="1.6" stroke-linecap="round" stroke-linejoin="round"/>
<path d="M13.5 21.5V25.5" stroke="#6151FB" stroke-width="1.6" stroke-linecap="round" stroke-linejoin="round"/>
<path d="M1 14.75H26" stroke="#6151FB" stroke-width="1.6" stroke-linecap="round" stroke-linejoin="round"/>
<path d="M7.875 26H19.125" stroke="#6151FB" stroke-width="1.6" stroke-linecap="round" stroke-linejoin="round"/>
<path d="M20.825 10.2127H14.875C13.15 10.2127 12.575 9.0627 12.575 7.9127V3.5127C12.575 2.1377 13.7 1.0127 15.075 1.0127H20.825C22.1 1.0127 23.125 2.0377 23.125 3.31269V7.9127C23.125 9.1877 22.1 10.2127 20.825 10.2127Z" stroke="#6151FB" stroke-width="1.6" stroke-linecap="round" stroke-linejoin="round"/>
<path d="M24.6375 8.39985L23.125 7.33735V3.88735L24.6375 2.82485C25.3875 2.31235 26 2.62485 26 3.53735V7.69985C26 8.61235 25.3875 8.92485 24.6375 8.39985Z" stroke="#6151FB" stroke-width="1.6" stroke-linecap="round" stroke-linejoin="round"/>
</svg>
