<svg width="28" height="28" viewBox="0 0 28 28" fill="none" xmlns="http://www.w3.org/2000/svg">
<path d="M14.6185 23.8234H7.24516C3.5585 23.8234 2.3335 21.3734 2.3335 18.9118V9.08842C2.3335 5.40176 3.5585 4.17676 7.24516 4.17676H14.6185C18.3052 4.17676 19.5302 5.40176 19.5302 9.08842V18.9118C19.5302 22.5984 18.2935 23.8234 14.6185 23.8234Z" stroke="#20AD96" stroke-width="1.5" stroke-linecap="round" stroke-linejoin="round"/>
<path d="M22.7736 19.9502L19.5303 17.6752V10.3135L22.7736 8.03849C24.3603 6.93015 25.6669 7.60682 25.6669 9.55515V18.4452C25.6669 20.3935 24.3603 21.0702 22.7736 19.9502Z" stroke="#20AD96" stroke-width="1.5" stroke-linecap="round" stroke-linejoin="round"/>
<path d="M13.4165 12.8345C14.383 12.8345 15.1665 12.051 15.1665 11.0845C15.1665 10.118 14.383 9.33447 13.4165 9.33447C12.45 9.33447 11.6665 10.118 11.6665 11.0845C11.6665 12.051 12.45 12.8345 13.4165 12.8345Z" stroke="#20AD96" stroke-width="1.5" stroke-linecap="round" stroke-linejoin="round"/>
</svg>
