<svg width="18" height="15" viewBox="0 0 18 15" fill="none" xmlns="http://www.w3.org/2000/svg">
<path d="M1.8125 7.90625L3 6.9375V14C3 14.2708 3.09375 14.5 3.28125 14.6875C3.48958 14.8958 3.72917 15 4 15H7C7.27083 15 7.5 14.8958 7.6875 14.6875C7.89583 14.5 8 14.2708 8 14V10H10V14C10 14.2708 10.0938 14.5 10.2812 14.6875C10.4896 14.8958 10.7292 15 11 15H14C14.2708 15 14.5 14.8958 14.6875 14.6875C14.8958 14.5 15 14.2708 15 14V6.9375L16.1875 7.90625C16.2708 7.96875 16.375 8 16.5 8C16.6667 8 16.8021 7.9375 16.9062 7.8125C17.0938 7.54167 17.0625 7.30208 16.8125 7.09375L9.3125 1.09375C9.10417 0.947917 8.89583 0.947917 8.6875 1.09375L6 3.25V2C6 1.72917 5.89583 1.5 5.6875 1.3125C5.5 1.10417 5.27083 1 5 1C4.72917 1 4.48958 1.10417 4.28125 1.3125C4.09375 1.5 4 1.72917 4 2V4.84375L1.1875 7.09375C0.9375 7.30208 0.90625 7.54167 1.09375 7.8125C1.30208 8.0625 1.54167 8.09375 1.8125 7.90625ZM9 2.125L14 6.125V14H11V9H7V14H4V6.15625L9 2.125Z" fill="white"/>
<path d="M1.8125 7.90625L1.8696 7.98872L1.87571 7.98374L1.8125 7.90625ZM3 6.9375H3.1V6.72687L2.93679 6.86001L3 6.9375ZM3.28125 14.6875L3.21054 14.7582L3.28125 14.6875ZM7.6875 14.6875L7.62023 14.6128L7.61317 14.6206L7.6875 14.6875ZM8 10V9.9H7.9V10H8ZM10 10H10.1V9.9H10V10ZM10.2812 14.6875L10.2105 14.7582L10.2812 14.6875ZM14.6875 14.6875L14.6202 14.6128L14.6132 14.6206L14.6875 14.6875ZM15 6.9375L15.0632 6.86001L14.9 6.72687V6.9375H15ZM16.1875 7.90625L16.1242 7.9838L16.1275 7.98625L16.1875 7.90625ZM16.9062 7.8125L16.9834 7.87677L16.9885 7.86942L16.9062 7.8125ZM16.8125 7.09375L16.8765 7.01691L16.875 7.01566L16.8125 7.09375ZM9.3125 1.09375L9.3751 1.0155L9.36985 1.01183L9.3125 1.09375ZM8.6875 1.09375L8.63003 1.01165L8.62492 1.01575L8.6875 1.09375ZM6 3.25H5.9V3.45844L6.06258 3.328L6 3.25ZM5.6875 1.3125L5.61276 1.37977L5.6206 1.38683L5.6875 1.3125ZM4.28125 1.3125L4.35196 1.38321L4.28125 1.3125ZM4 4.84375L4.06247 4.92184L4.1 4.89181V4.84375H4ZM1.1875 7.09375L1.12502 7.01565L1.12348 7.01693L1.1875 7.09375ZM1.09375 7.8125L1.0112 7.86965L1.01693 7.87652L1.09375 7.8125ZM9 2.125L9.06247 2.04691L8.99976 1.99674L8.93723 2.04715L9 2.125ZM14 6.125H14.1V6.07694L14.0625 6.04691L14 6.125ZM14 14V14.1H14.1V14H14ZM11 14H10.9V14.1H11V14ZM11 9H11.1V8.9H11V9ZM7 9V8.9H6.9V9H7ZM7 14V14.1H7.1V14H7ZM4 14H3.9V14.1H4V14ZM4 6.15625L3.93723 6.0784L3.9 6.10842V6.15625H4ZM1.87571 7.98374L3.06321 7.01499L2.93679 6.86001L1.74929 7.82876L1.87571 7.98374ZM2.9 6.9375V14H3.1V6.9375H2.9ZM2.9 14C2.9 14.2967 3.00384 14.5515 3.21054 14.7582L3.35196 14.6168C3.18366 14.4485 3.1 14.2449 3.1 14H2.9ZM3.21054 14.7582C3.43581 14.9835 3.70018 15.1 4 15.1V14.9C3.75815 14.9 3.54336 14.8082 3.35196 14.6168L3.21054 14.7582ZM4 15.1H7V14.9H4V15.1ZM7 15.1C7.30029 15.1 7.55612 14.983 7.76183 14.7544L7.61317 14.6206C7.44388 14.8087 7.24138 14.9 7 14.9V15.1ZM7.7544 14.7618C7.98297 14.5561 8.1 14.3003 8.1 14H7.9C7.9 14.2414 7.8087 14.4439 7.6206 14.6132L7.7544 14.7618ZM8.1 14V10H7.9V14H8.1ZM8 10.1H10V9.9H8V10.1ZM9.9 10V14H10.1V10H9.9ZM9.9 14C9.9 14.2967 10.0038 14.5515 10.2105 14.7582L10.352 14.6168C10.1837 14.4485 10.1 14.2449 10.1 14H9.9ZM10.2105 14.7582C10.4358 14.9835 10.7002 15.1 11 15.1V14.9C10.7582 14.9 10.5434 14.8082 10.352 14.6168L10.2105 14.7582ZM11 15.1H14V14.9H11V15.1ZM14 15.1C14.3003 15.1 14.5561 14.983 14.7618 14.7544L14.6132 14.6206C14.4439 14.8087 14.2414 14.9 14 14.9V15.1ZM14.7544 14.7618C14.983 14.5561 15.1 14.3003 15.1 14H14.9C14.9 14.2414 14.8087 14.4439 14.6206 14.6132L14.7544 14.7618ZM15.1 14V6.9375H14.9V14H15.1ZM14.9368 7.01499L16.1243 7.98374L16.2507 7.82876L15.0632 6.86001L14.9368 7.01499ZM16.1275 7.98625C16.2314 8.06417 16.3578 8.1 16.5 8.1V7.9C16.3922 7.9 16.3103 7.87333 16.2475 7.82625L16.1275 7.98625ZM16.5 8.1C16.6955 8.1 16.8594 8.02495 16.9831 7.87652L16.8294 7.74848C16.7448 7.85005 16.6378 7.9 16.5 7.9V8.1ZM16.9885 7.86942C17.0912 7.7211 17.1424 7.56886 17.1226 7.41675C17.1027 7.2644 17.014 7.13152 16.8765 7.01693L16.7485 7.17057C16.861 7.26431 16.9129 7.35539 16.9243 7.44262C16.9357 7.5301 16.9088 7.63307 16.824 7.75558L16.9885 7.86942ZM16.875 7.01566L9.37497 1.01566L9.25003 1.17184L16.75 7.17184L16.875 7.01566ZM9.36985 1.01183C9.25264 0.929779 9.12884 0.884375 9 0.884375C8.87116 0.884375 8.74736 0.929779 8.63015 1.01183L8.74485 1.17567C8.83597 1.11189 8.92051 1.08437 9 1.08437C9.07949 1.08437 9.16403 1.11189 9.25515 1.17567L9.36985 1.01183ZM8.62492 1.01575L5.93742 3.172L6.06258 3.328L8.75008 1.17175L8.62492 1.01575ZM6.1 3.25V2H5.9V3.25H6.1ZM6.1 2C6.1 1.69971 5.98297 1.44388 5.7544 1.23817L5.6206 1.38683C5.8087 1.55612 5.9 1.75862 5.9 2H6.1ZM5.76183 1.2456C5.55612 1.01703 5.30029 0.9 5 0.9V1.1C5.24138 1.1 5.44388 1.1913 5.61317 1.3794L5.76183 1.2456ZM5 0.9C4.70018 0.9 4.43581 1.01652 4.21054 1.24179L4.35196 1.38321C4.54336 1.19182 4.75815 1.1 5 1.1V0.9ZM4.21054 1.24179C4.00384 1.44849 3.9 1.70328 3.9 2H4.1C4.1 1.75505 4.18366 1.55151 4.35196 1.38321L4.21054 1.24179ZM3.9 2V4.84375H4.1V2H3.9ZM3.93753 4.76566L1.12503 7.01566L1.24997 7.17184L4.06247 4.92184L3.93753 4.76566ZM1.12348 7.01693C0.985969 7.13152 0.897274 7.2644 0.877402 7.41675C0.857563 7.56886 0.908848 7.7211 1.01153 7.86942L1.17597 7.75558C1.09115 7.63307 1.06431 7.5301 1.07572 7.44262C1.0871 7.35539 1.13903 7.26431 1.25152 7.17057L1.12348 7.01693ZM1.01693 7.87652C1.13152 8.01403 1.2644 8.10273 1.41675 8.1226C1.56886 8.14244 1.7211 8.09115 1.86942 7.98847L1.75558 7.82403C1.63307 7.90885 1.5301 7.93569 1.44262 7.92428C1.35539 7.9129 1.26431 7.86097 1.17057 7.74848L1.01693 7.87652ZM8.93753 2.20309L13.9375 6.20309L14.0625 6.04691L9.06247 2.04691L8.93753 2.20309ZM13.9 6.125V14H14.1V6.125H13.9ZM14 13.9H11V14.1H14V13.9ZM11.1 14V9H10.9V14H11.1ZM11 8.9H7V9.1H11V8.9ZM6.9 9V14H7.1V9H6.9ZM7 13.9H4V14.1H7V13.9ZM4.1 14V6.15625H3.9V14H4.1ZM4.06277 6.2341L9.06277 2.20285L8.93723 2.04715L3.93723 6.0784L4.06277 6.2341Z" fill="#E7F4F3"/>
</svg>
