<svg width="15" height="15" viewBox="0 0 15 15" fill="none" xmlns="http://www.w3.org/2000/svg">
<path opacity="0.7" d="M7.5217 2.9096C8.32516 2.9096 8.9765 2.25826 8.9765 1.4548C8.9765 0.651336 8.32516 0 7.5217 0C6.71823 0 6.06689 0.651336 6.06689 1.4548C6.06689 2.25826 6.71823 2.9096 7.5217 2.9096Z" fill="white"/>
<path d="M13.5193 2.9096C14.3227 2.9096 14.9741 2.25826 14.9741 1.4548C14.9741 0.651336 14.3227 0 13.5193 0C12.7158 0 12.0645 0.651336 12.0645 1.4548C12.0645 2.25826 12.7158 2.9096 13.5193 2.9096Z" fill="white"/>
<path d="M1.4548 2.9096C2.25826 2.9096 2.9096 2.25826 2.9096 1.4548C2.9096 0.651336 2.25826 0 1.4548 0C0.651336 0 0 0.651336 0 1.4548C0 2.25826 0.651336 2.9096 1.4548 2.9096Z" fill="white"/>
<path d="M7.5217 9.00193C8.32516 9.00193 8.9765 8.35059 8.9765 7.54713C8.9765 6.74367 8.32516 6.09233 7.5217 6.09233C6.71823 6.09233 6.06689 6.74367 6.06689 7.54713C6.06689 8.35059 6.71823 9.00193 7.5217 9.00193Z" fill="white"/>
<path opacity="0.7" d="M13.5193 9.00193C14.3227 9.00193 14.9741 8.35059 14.9741 7.54713C14.9741 6.74367 14.3227 6.09233 13.5193 6.09233C12.7158 6.09233 12.0645 6.74367 12.0645 7.54713C12.0645 8.35059 12.7158 9.00193 13.5193 9.00193Z" fill="white"/>
<path opacity="0.7" d="M7.5217 15C8.32516 15 8.9765 14.3487 8.9765 13.5452C8.9765 12.7417 8.32516 12.0904 7.5217 12.0904C6.71823 12.0904 6.06689 12.7417 6.06689 13.5452C6.06689 14.3487 6.71823 15 7.5217 15Z" fill="white"/>
<path d="M13.5193 15C14.3227 15 14.9741 14.3487 14.9741 13.5452C14.9741 12.7417 14.3227 12.0904 13.5193 12.0904C12.7158 12.0904 12.0645 12.7417 12.0645 13.5452C12.0645 14.3487 12.7158 15 13.5193 15Z" fill="white"/>
<path opacity="0.7" d="M1.4548 9.00193C2.25826 9.00193 2.9096 8.35059 2.9096 7.54713C2.9096 6.74367 2.25826 6.09233 1.4548 6.09233C0.651336 6.09233 0 6.74367 0 7.54713C0 8.35059 0.651336 9.00193 1.4548 9.00193Z" fill="white"/>
<path d="M1.4548 15C2.25826 15 2.9096 14.3487 2.9096 13.5452C2.9096 12.7417 2.25826 12.0904 1.4548 12.0904C0.651336 12.0904 0 12.7417 0 13.5452C0 14.3487 0.651336 15 1.4548 15Z" fill="white"/>
</svg>
