<svg width="15" height="20" viewBox="0 0 15 20" fill="none" xmlns="http://www.w3.org/2000/svg">
<path d="M7.1466 8.96416C7.05493 8.95499 6.94493 8.95499 6.8441 8.96416C4.66243 8.89083 2.92993 7.10333 2.92993 4.90333C2.92993 2.65749 4.74493 0.833328 6.99993 0.833328C9.24576 0.833328 11.0699 2.65749 11.0699 4.90333C11.0608 7.10333 9.32826 8.89083 7.1466 8.96416Z" stroke="#0C140F" stroke-width="1.5" stroke-linecap="round" stroke-linejoin="round"/>
<path d="M2.56341 12.3467C0.345075 13.8317 0.345075 16.2517 2.56341 17.7275C5.08424 19.4142 9.21841 19.4142 11.7392 17.7275C13.9576 16.2425 13.9576 13.8225 11.7392 12.3467C9.22758 10.6692 5.09341 10.6692 2.56341 12.3467Z" stroke="#0C140F" stroke-width="1.5" stroke-linecap="round" stroke-linejoin="round"/>
</svg>
