<svg width="15" height="13" viewBox="0 0 15 13" fill="none" xmlns="http://www.w3.org/2000/svg">
<path fill-rule="evenodd" clip-rule="evenodd" d="M7.5163 7.93224C7.11179 7.93224 6.70849 7.79861 6.37109 7.53136L3.65922 5.34493C3.46391 5.18772 3.43368 4.90172 3.59029 4.70702C3.7481 4.51292 4.0335 4.48209 4.2282 4.63869L6.93765 6.8227C7.27807 7.09238 7.75756 7.09238 8.1004 6.82028L10.7826 4.6399C10.9773 4.48088 11.2627 4.51111 11.4212 4.70581C11.579 4.8999 11.5493 5.1853 11.3553 5.34372L8.66817 7.52773C8.32835 7.7974 7.92203 7.93224 7.5163 7.93224Z" fill="#4B535A"/>
<path d="M7.5163 7.93224C7.11179 7.93224 6.70849 7.79861 6.37109 7.53136L3.65922 5.34493C3.46391 5.18772 3.43368 4.90172 3.59029 4.70702C3.7481 4.51292 4.0335 4.48209 4.2282 4.63869L6.93765 6.8227C7.27807 7.09238 7.75756 7.09238 8.1004 6.82028L10.7826 4.6399C10.9773 4.48088 11.2627 4.51111 11.4212 4.70581C11.579 4.8999 11.5493 5.1853 11.3553 5.34372L8.66817 7.52773C8.32835 7.7974 7.92203 7.93224 7.5163 7.93224" stroke="#4B535A" stroke-width="0.2"/>
<path fill-rule="evenodd" clip-rule="evenodd" d="M4.53063 11.8838H10.4683C10.4695 11.8826 10.4744 11.8838 10.478 11.8838C11.1679 11.8838 11.7798 11.6371 12.249 11.1685C12.7938 10.6261 13.0931 9.8467 13.0931 8.97418V4.82142C13.0931 3.13262 11.989 1.90699 10.4683 1.90699H4.53184C3.01113 1.90699 1.90703 3.13262 1.90703 4.82142V8.97418C1.90703 9.8467 2.20694 10.6261 2.75113 11.1685C3.22034 11.6371 3.83286 11.8838 4.52216 11.8838H4.53063ZM4.52029 12.7908C3.58731 12.7908 2.7541 12.4521 2.11075 11.8112C1.39423 11.0965 1 10.0892 1 8.97418V4.82141C1 2.64284 2.51829 1 4.53178 1H10.4683C12.4818 1 14.0001 2.64284 14.0001 4.82141V8.97418C14.0001 10.0892 13.6058 11.0965 12.8893 11.8112C12.2466 12.4515 11.4127 12.7908 10.478 12.7908H10.4683H4.53178H4.52029Z" fill="#4B535A"/>
<path d="M10.4683 11.8838V11.9838H10.5098L10.539 11.9545L10.4683 11.8838ZM12.249 11.1685L12.1785 11.0976L12.1784 11.0977L12.249 11.1685ZM2.75113 11.1685L2.8218 11.0977L2.82172 11.0976L2.75113 11.1685ZM2.11075 11.8112L2.04013 11.882L2.04017 11.8821L2.11075 11.8112ZM12.8893 11.8112L12.9599 11.8821L12.9599 11.882L12.8893 11.8112ZM4.53063 11.9838H10.4683V11.7838H4.53063V11.9838ZM10.539 11.9545C10.5246 11.969 10.5091 11.9755 10.4998 11.9786C10.4903 11.9816 10.4824 11.9826 10.4781 11.9829C10.4701 11.9836 10.464 11.983 10.464 11.983C10.4634 11.9829 10.463 11.9829 10.4634 11.9829C10.4635 11.9829 10.4646 11.9831 10.4656 11.9831C10.4673 11.9833 10.4721 11.9838 10.478 11.9838V11.7838C10.4802 11.7838 10.482 11.7839 10.483 11.7839C10.484 11.784 10.4846 11.7841 10.4847 11.7841C10.4868 11.7843 10.4818 11.7838 10.4806 11.7837C10.4787 11.7835 10.4709 11.7828 10.4615 11.7836C10.4566 11.784 10.4481 11.7851 10.4381 11.7883C10.4283 11.7915 10.4124 11.7983 10.3976 11.8131L10.539 11.9545ZM10.478 11.9838C11.1931 11.9838 11.8309 11.7274 12.3197 11.2392L12.1784 11.0977C11.7288 11.5467 11.1427 11.7838 10.478 11.7838V11.9838ZM12.3196 11.2393C12.8859 10.6756 13.1931 9.86931 13.1931 8.97418H12.9931C12.9931 9.82408 12.7018 10.5766 12.1785 11.0976L12.3196 11.2393ZM13.1931 8.97418V4.82142H12.9931V8.97418H13.1931ZM13.1931 4.82142C13.1931 3.08749 12.0538 1.80699 10.4683 1.80699V2.00699C11.9242 2.00699 12.9931 3.17775 12.9931 4.82142H13.1931ZM10.4683 1.80699H4.53184V2.00699H10.4683V1.80699ZM4.53184 1.80699C2.94632 1.80699 1.80703 3.08749 1.80703 4.82142H2.00703C2.00703 3.17775 3.07594 2.00699 4.53184 2.00699V1.80699ZM1.80703 4.82142V8.97418H2.00703V4.82142H1.80703ZM1.80703 8.97418C1.80703 9.86936 2.11492 10.6756 2.68054 11.2393L2.82172 11.0976C2.29896 10.5766 2.00703 9.82403 2.00703 8.97418H1.80703ZM2.68047 11.2392C3.16931 11.7274 3.80764 11.9838 4.52216 11.9838V11.7838C3.85808 11.7838 3.27137 11.5467 2.8218 11.0977L2.68047 11.2392ZM4.52216 11.9838H4.53063V11.7838H4.52216V11.9838ZM4.52029 12.6908C3.61295 12.6908 2.80536 12.3621 2.18133 11.7404L2.04017 11.8821C2.70284 12.5422 3.56168 12.8908 4.52029 12.8908V12.6908ZM2.18137 11.7404C1.48568 11.0465 1.1 10.0656 1.1 8.97418H0.9C0.9 10.1127 1.30279 11.1465 2.04013 11.882L2.18137 11.7404ZM1.1 8.97418V4.82141H0.9V8.97418H1.1ZM1.1 4.82141C1.1 2.69051 2.58079 1.1 4.53178 1.1V0.9C2.45578 0.9 0.9 2.59518 0.9 4.82141H1.1ZM4.53178 1.1H10.4683V0.9H4.53178V1.1ZM10.4683 1.1C12.4193 1.1 13.9001 2.69051 13.9001 4.82141H14.1001C14.1001 2.59518 12.5443 0.9 10.4683 0.9V1.1ZM13.9001 4.82141V8.97418H14.1001V4.82141H13.9001ZM13.9001 8.97418C13.9001 10.0656 13.5144 11.0465 12.8187 11.7404L12.9599 11.882C13.6973 11.1465 14.1001 10.1127 14.1001 8.97418H13.9001ZM12.8187 11.7404C12.1953 12.3614 11.3871 12.6908 10.478 12.6908V12.8908C11.4384 12.8908 12.2978 12.5416 12.9599 11.8821L12.8187 11.7404ZM10.478 12.6908H10.4683V12.8908H10.478V12.6908ZM10.4683 12.6908H4.53178V12.8908H10.4683V12.6908ZM4.53178 12.6908H4.52029V12.8908H4.53178V12.6908Z" fill="#4B535A"/>
</svg>
