<svg width="42" height="44" viewBox="0 0 42 44" fill="none" xmlns="http://www.w3.org/2000/svg">
<path d="M16.6013 2.11585L3.95694 10.3704C-0.0968136 13.0169 -0.0968136 18.94 3.95694 21.5865L16.6013 29.841C18.8697 31.3323 22.6084 31.3323 24.8769 29.841L37.4582 21.5865C41.491 18.94 41.491 13.0379 37.4582 10.3914L24.8769 2.13685C22.6084 0.624568 18.8697 0.624569 16.6013 2.11585Z" stroke="#031220" stroke-width="1.5" stroke-linecap="round" stroke-linejoin="round"/>
<path d="M7.3176 24.275L7.2966 34.1259C7.2966 36.7934 9.35499 39.6499 11.8755 40.4901L18.5757 42.7165C19.7309 43.0945 21.6423 43.0945 22.8185 42.7165L29.5188 40.4901C32.0392 39.6499 34.0976 36.7934 34.0976 34.1259V24.38" stroke="#3D6CE7" stroke-width="1.5" stroke-linecap="round" stroke-linejoin="round"/>
<path d="M40.4408 28.3077V15.7054" stroke="#3D6CE7" stroke-width="1.5" stroke-linecap="round" stroke-linejoin="round"/>
</svg>
