<svg width="44" height="40" viewBox="0 0 44 40" fill="none" xmlns="http://www.w3.org/2000/svg">
<path d="M6.7168 31.4941V18.0775" stroke="#3D6CE7" stroke-width="1.5" stroke-miterlimit="10" stroke-linecap="round" stroke-linejoin="round"/>
<path d="M14.3835 31.4941V18.0775" stroke="#3D6CE7" stroke-width="1.5" stroke-miterlimit="10" stroke-linecap="round" stroke-linejoin="round"/>
<path d="M22.0501 31.4941V18.0775" stroke="#3D6CE7" stroke-width="1.5" stroke-miterlimit="10" stroke-linecap="round" stroke-linejoin="round"/>
<path d="M29.7168 31.4941V18.0775" stroke="#3D6CE7" stroke-width="1.5" stroke-miterlimit="10" stroke-linecap="round" stroke-linejoin="round"/>
<path d="M37.3835 31.4941V18.0775" stroke="#3D6CE7" stroke-width="1.5" stroke-miterlimit="10" stroke-linecap="round" stroke-linejoin="round"/>
<path d="M41.2168 39.1608H2.88347V33.4108C2.88347 32.3566 3.74597 31.4941 4.80014 31.4941H39.3001C40.3543 31.4941 41.2168 32.3566 41.2168 33.4108V39.1608Z" stroke="#031220" stroke-width="1.5" stroke-miterlimit="10" stroke-linecap="round" stroke-linejoin="round"/>
<path d="M22.7593 1.115L40.0093 8.01495C40.6801 8.28329 41.2168 9.08827 41.2168 9.79744V16.1608C41.2168 17.215 40.3543 18.0775 39.3001 18.0775H4.80014C3.74597 18.0775 2.88347 17.215 2.88347 16.1608V9.79744C2.88347 9.08827 3.42014 8.28329 4.09098 8.01495L21.341 1.115C21.7243 0.961667 22.376 0.961667 22.7593 1.115Z" stroke="#031220" stroke-width="1.5" stroke-miterlimit="10" stroke-linecap="round" stroke-linejoin="round"/>
<path d="M0.966797 39.1608H43.1335" stroke="#031220" stroke-width="1.5" stroke-miterlimit="10" stroke-linecap="round" stroke-linejoin="round"/>
<path d="M22.0501 13.2858C23.6379 13.2858 24.9251 11.9986 24.9251 10.4108C24.9251 8.82295 23.6379 7.53577 22.0501 7.53577C20.4623 7.53577 19.1751 8.82295 19.1751 10.4108C19.1751 11.9986 20.4623 13.2858 22.0501 13.2858Z" stroke="#031220" stroke-width="1.5" stroke-miterlimit="10" stroke-linecap="round" stroke-linejoin="round"/>
</svg>
