<svg width="34" height="32" viewBox="0 0 34 32" fill="none" xmlns="http://www.w3.org/2000/svg">
<path d="M31.4 6.76923H25.5333V5.03846C25.5321 3.96781 25.1384 2.94138 24.4385 2.18431C23.7386 1.42724 22.7898 1.00134 21.8 1H12.2C11.2102 1.00134 10.2614 1.42724 9.5615 2.18431C8.86163 2.94138 8.4679 3.96781 8.46667 5.03846V6.76923H2.6C2.17565 6.76923 1.76869 6.95158 1.46863 7.27616C1.16857 7.60074 1 8.04097 1 8.5L1 20.0385C1.00134 20.3952 1.10454 20.7427 1.29548 21.0336C1.48641 21.3244 1.75576 21.5443 2.06667 21.6632V29.2692C2.06667 29.7283 2.23524 30.1685 2.5353 30.4931C2.83535 30.8177 3.24232 31 3.66667 31H30.3333C30.7577 31 31.1646 30.8177 31.4647 30.4931C31.7648 30.1685 31.9333 29.7283 31.9333 29.2692V21.6632C32.2442 21.5443 32.5136 21.3244 32.7045 21.0336C32.8955 20.7427 32.9987 20.3952 33 20.0385V8.5C33 8.04097 32.8314 7.60074 32.5314 7.27616C32.2313 6.95158 31.8243 6.76923 31.4 6.76923ZM9.53333 5.03846C9.53422 4.27371 9.81545 3.54055 10.3154 2.99978C10.8153 2.45902 11.493 2.1548 12.2 2.15385H21.8C22.507 2.1548 23.1847 2.45902 23.6846 2.99978C24.1846 3.54055 24.4658 4.27371 24.4667 5.03846V6.76923H23.3787L23.4 5.03846C23.3989 4.57978 23.23 4.14022 22.9302 3.81588C22.6304 3.49155 22.224 3.30883 21.8 3.30769H12.18C11.756 3.30883 11.3496 3.49155 11.0498 3.81588C10.75 4.14022 10.5811 4.57978 10.58 5.03846V5.04423L10.5947 6.76923H9.53333V5.03846ZM22.3333 5.03053L22.312 6.76923H11.6613L11.6447 5.03846C11.6447 4.88545 11.7009 4.73871 11.8009 4.63052C11.9009 4.52232 12.0366 4.46154 12.178 4.46154H21.8C21.9402 4.46152 22.0747 4.52122 22.1746 4.6277C22.2744 4.73419 22.3314 4.8789 22.3333 5.03053ZM30.8667 29.2692C30.8667 29.4222 30.8105 29.569 30.7105 29.6772C30.6104 29.7854 30.4748 29.8462 30.3333 29.8462H3.66667C3.52522 29.8462 3.38956 29.7854 3.28954 29.6772C3.18952 29.569 3.13333 29.4222 3.13333 29.2692V21.7692H6.86667V23.5C6.86667 23.653 6.92286 23.7998 7.02288 23.9079C7.1229 24.0161 7.25855 24.0769 7.4 24.0769H9.53333C9.67478 24.0769 9.81044 24.0161 9.91046 23.9079C10.0105 23.7998 10.0667 23.653 10.0667 23.5V21.7692H23.9333V23.5C23.9333 23.653 23.9895 23.7998 24.0895 23.9079C24.1896 24.0161 24.3252 24.0769 24.4667 24.0769H26.6C26.7415 24.0769 26.8771 24.0161 26.9771 23.9079C27.0771 23.7998 27.1333 23.653 27.1333 23.5V21.7692H30.8667V29.2692ZM7.93333 22.9231V20.0385C7.93332 19.9615 7.94786 19.8853 7.97606 19.8146C8.00427 19.7439 8.04554 19.6802 8.09733 19.6274C8.14532 19.5742 8.20279 19.532 8.26628 19.5035C8.32976 19.475 8.39793 19.4607 8.46667 19.4615C8.60812 19.4615 8.74377 19.5223 8.84379 19.6305C8.94381 19.7387 9 19.8855 9 20.0385V22.9231H7.93333ZM25 22.9231V20.0385C25 19.8855 25.0562 19.7387 25.1562 19.6305C25.2562 19.5223 25.3919 19.4615 25.5333 19.4615C25.6045 19.4612 25.6749 19.4767 25.7403 19.5071C25.8057 19.5375 25.8646 19.5821 25.9133 19.6382C25.9624 19.6904 26.0013 19.7527 26.0277 19.8215C26.054 19.8902 26.0673 19.964 26.0667 20.0385V22.9231H25ZM31.9333 20.0385C31.9333 20.1915 31.8771 20.3382 31.7771 20.4464C31.6771 20.5546 31.5415 20.6154 31.4 20.6154H27.1333V20.0385C27.1333 19.5794 26.9648 19.1392 26.6647 18.8146C26.3646 18.49 25.9577 18.3077 25.5333 18.3077C25.109 18.3077 24.702 18.49 24.402 18.8146C24.1019 19.1392 23.9333 19.5794 23.9333 20.0385V20.6154H10.0667V20.0385C10.0667 19.5794 9.8981 19.1392 9.59804 18.8146C9.29798 18.49 8.89101 18.3077 8.46667 18.3077C8.04232 18.3077 7.63535 18.49 7.3353 18.8146C7.03524 19.1392 6.86667 19.5794 6.86667 20.0385V20.6154H2.6C2.45855 20.6154 2.3229 20.5546 2.22288 20.4464C2.12286 20.3382 2.06667 20.1915 2.06667 20.0385V8.5C2.06667 8.34699 2.12286 8.20025 2.22288 8.09205C2.3229 7.98386 2.45855 7.92308 2.6 7.92308H31.4C31.5415 7.92308 31.6771 7.98386 31.7771 8.09205C31.8771 8.20025 31.9333 8.34699 31.9333 8.5V20.0385Z" fill="#59C578" stroke="#59C578" stroke-width="0.4"/>
</svg>
