<svg id="_x31_" enable-background="new 0 0 24 24" height="512" viewBox="0 0 24 24" width="512" xmlns="http://www.w3.org/2000/svg"><g><g><path d="m18.5 20c-.061 0-.121-.011-.18-.033l-13-5c-.193-.074-.32-.26-.32-.467v-6c0-.207.127-.393.32-.467l13-5c.155-.06.326-.038.463.055.136.093.217.247.217.412v16c0 .165-.081.319-.217.412-.085.058-.183.088-.283.088zm-12.5-5.844 12 4.616v-14.544l-12 4.616z"/></g></g><g><g><path d="m5.5 15h-3.5c-1.103 0-2-.897-2-2v-3c0-1.103.897-2 2-2h3.5c.276 0 .5.224.5.5v6c0 .276-.224.5-.5.5zm-3.5-6c-.552 0-1 .448-1 1v3c0 .552.448 1 1 1h3v-5z"/></g></g><g><g><path d="m7.5 22h-3c-.249 0-.46-.183-.495-.43l-1-7c-.039-.273.151-.526.425-.565.268-.034.526.151.565.425l.939 6.57h2.006l-.668-5.954c-.03-.274.167-.521.441-.553.265-.029.521.167.553.441l.73 6.51c.016.142-.029.283-.124.389-.094.106-.229.167-.372.167z"/></g></g><g><g><path d="m20.5 9c-.161 0-.319-.078-.416-.223-.153-.229-.091-.54.139-.693l3-2c.228-.152.539-.092.693.139.153.229.091.54-.139.693l-3 2c-.085.057-.181.084-.277.084z"/></g></g><g><g><path d="m23.5 18c-.096 0-.192-.027-.277-.084l-3-2c-.229-.153-.292-.464-.139-.693.154-.23.466-.291.693-.139l3 2c.229.153.292.464.139.693-.097.145-.255.223-.416.223z"/></g></g><g><g><path d="m23.5 12.5h-3c-.276 0-.5-.224-.5-.5s.224-.5.5-.5h3c.276 0 .5.224.5.5s-.224.5-.5.5z"/></g></g></svg>