<svg width="27" height="29" viewBox="0 0 27 29" fill="none" xmlns="http://www.w3.org/2000/svg">
<path d="M25.0833 14.175V8.14001C25.0833 2.43085 23.7517 1 18.3967 1H7.68667C2.33167 1 1 2.43085 1 8.14001V24.0916C1 27.86 3.06835 28.7525 5.57585 26.0608L5.58999 26.0467C6.75165 24.8142 8.52248 24.9133 9.52832 26.2591L10.9592 28.1717" stroke="#E33CFF" stroke-width="1.5" stroke-linecap="round" stroke-linejoin="round"/>
<path d="M7.375 8.08331H18.7083" stroke="#E33CFF" stroke-width="1.5" stroke-linecap="round" stroke-linejoin="round"/>
<path d="M8.79175 13.75H17.2917" stroke="#E33CFF" stroke-width="1.5" stroke-linecap="round" stroke-linejoin="round"/>
<path d="M21.8405 19.0912L16.8255 24.1063C16.6272 24.3046 16.443 24.6729 16.4005 24.9421L16.1313 26.8546C16.0322 27.5488 16.5139 28.0304 17.208 27.9313L19.1205 27.6621C19.3897 27.6196 19.7722 27.4354 19.9564 27.2371L24.9714 22.2221C25.8355 21.3579 26.2464 20.3521 24.9714 19.0771C23.7105 17.8163 22.7047 18.2271 21.8405 19.0912Z" stroke="#E33CFF" stroke-width="1.5" stroke-miterlimit="10" stroke-linecap="round" stroke-linejoin="round"/>
<path d="M21.1155 19.8137C21.5405 21.3437 22.7305 22.5337 24.2605 22.9587" stroke="#E33CFF" stroke-width="1.5" stroke-miterlimit="10" stroke-linecap="round" stroke-linejoin="round"/>
</svg>
