<svg width="30" height="30" viewBox="0 0 30 30" fill="none" xmlns="http://www.w3.org/2000/svg">
<path d="M28.733 3.71736C26.5787 9.08912 21.1789 16.3914 16.6605 20.0145L13.9047 22.2247C13.555 22.4765 13.2052 22.7004 12.8135 22.8542C12.8135 22.6024 12.7996 22.3227 12.7576 22.0569C12.6037 20.8818 12.0721 19.7907 11.1349 18.8534C10.1836 17.9022 9.02254 17.3426 7.83348 17.1887C7.5537 17.1747 7.27392 17.1468 6.99414 17.1747C7.14802 16.7411 7.38583 16.3354 7.6796 15.9997L9.86188 13.2438C13.471 8.7254 20.8012 3.29769 26.159 1.15738C26.9844 0.849623 27.7817 1.07345 28.2853 1.59104C28.8169 2.10863 29.0687 2.906 28.733 3.71736Z" stroke="#4270FF" stroke-width="1.56" stroke-linecap="round" stroke-linejoin="round"/>
<path d="M12.8136 22.8543C12.8136 24.393 12.226 25.8619 11.1209 26.981C10.2676 27.8343 9.10649 28.4219 7.72158 28.6037L4.2803 28.9814C2.40578 29.1913 0.797051 27.5965 1.02087 25.694L1.39858 22.2527C1.73431 19.1891 4.29429 17.2307 7.00815 17.1747C7.28793 17.1608 7.58169 17.1747 7.84748 17.1887C9.03655 17.3426 10.1976 17.8882 11.1489 18.8534C12.0861 19.7907 12.6177 20.8818 12.7716 22.0569C12.7856 22.3227 12.8136 22.5885 12.8136 22.8543Z" stroke="#4270FF" stroke-width="1.56" stroke-linecap="round" stroke-linejoin="round"/>
<path d="M18.1433 18.4477C18.1433 14.7966 15.1776 11.8309 11.5265 11.8309" stroke="#4270FF" stroke-width="1.56" stroke-linecap="round" stroke-linejoin="round"/>
<path d="M26.3688 16.0137L27.404 17.0349C29.4884 19.1192 29.4884 21.1756 27.404 23.26L23.2633 27.4007C21.2069 29.4571 19.1225 29.4571 17.0662 27.4007" stroke="#4270FF" stroke-width="1.56" stroke-linecap="round"/>
<path d="M2.57353 12.9081C0.517156 10.8237 0.517156 8.76737 2.57353 6.68301L6.71426 2.54228C8.77064 0.485906 10.855 0.485906 12.9114 2.54228L13.9466 3.57747" stroke="#4270FF" stroke-width="1.56" stroke-linecap="round"/>
<path d="M13.9606 3.59143L8.78467 8.76734" stroke="#4270FF" stroke-width="1.56" stroke-linecap="round"/>
<path d="M26.3688 16.0137L22.228 20.1404" stroke="#4270FF" stroke-width="1.56" stroke-linecap="round"/>
</svg>
