<svg width="34" height="30" viewBox="0 0 34 30" fill="none" xmlns="http://www.w3.org/2000/svg">
<path d="M13.6258 21.5381C13.5005 21.5379 13.3793 21.4933 13.2839 21.412L9.86503 18.5011C9.80677 18.4515 9.75999 18.3898 9.7279 18.3204C9.69582 18.2509 9.6792 18.1753 9.6792 18.0988C9.6792 18.0223 9.69582 17.9467 9.7279 17.8773C9.75999 17.8078 9.80677 17.7462 9.86503 17.6966L13.2839 14.7856C13.391 14.6986 13.528 14.6569 13.6655 14.6695C13.8029 14.6822 13.93 14.7481 14.0195 14.8533C14.1089 14.9584 14.1537 15.0944 14.1441 15.2321C14.1346 15.3698 14.0715 15.4983 13.9684 15.5902L11.025 18.0988L13.9684 20.6075C14.0507 20.6776 14.1096 20.7712 14.137 20.8758C14.1644 20.9804 14.1591 21.0909 14.1217 21.1923C14.0844 21.2938 14.0168 21.3813 13.9281 21.4431C13.8394 21.505 13.7339 21.5381 13.6258 21.5381Z" fill="#FFA428" stroke="#F5B455" stroke-width="0.5"/>
<path d="M20.3744 21.5381C20.2663 21.5381 20.1608 21.505 20.0721 21.4431C19.9834 21.3813 19.9158 21.2938 19.8785 21.1923C19.8411 21.0909 19.8358 20.9804 19.8632 20.8758C19.8906 20.7712 19.9495 20.6776 20.0318 20.6075L22.9752 18.0988L20.0318 15.5902C19.9287 15.4983 19.8656 15.3698 19.8561 15.2321C19.8465 15.0944 19.8913 14.9584 19.9807 14.8533C20.0702 14.7481 20.1973 14.6822 20.3347 14.6695C20.4722 14.6569 20.6092 14.6986 20.7163 14.7856L24.1352 17.6966C24.1934 17.7462 24.2402 17.8078 24.2723 17.8773C24.3044 17.9467 24.321 18.0223 24.321 18.0988C24.321 18.1753 24.3044 18.2509 24.2723 18.3204C24.2402 18.3898 24.1934 18.4515 24.1352 18.5011L20.7163 21.412C20.6209 21.4933 20.4997 21.5379 20.3744 21.5381Z" fill="#FFA428" stroke="#F5B455" stroke-width="0.5"/>
<path d="M15.7925 23.7215C15.7557 23.7214 15.719 23.7176 15.683 23.7102C15.5461 23.6812 15.4262 23.599 15.3498 23.4817C15.2734 23.3644 15.2467 23.2215 15.2755 23.0845L17.4061 12.9713C17.435 12.8342 17.5172 12.7142 17.6346 12.6377C17.752 12.5612 17.895 12.5345 18.0321 12.5634C18.1692 12.5923 18.2892 12.6745 18.3657 12.7919C18.4422 12.9093 18.4689 13.0523 18.44 13.1894L16.3087 23.3026C16.2836 23.421 16.2187 23.5272 16.1247 23.6034C16.0308 23.6797 15.9135 23.7214 15.7925 23.7215Z" fill="#FFA428" stroke="#F5B455" stroke-width="0.5"/>
<path d="M29.4528 29.2332H4.54717C3.60677 29.232 2.70523 28.8579 2.04027 28.1929C1.3753 27.528 1.0012 26.6264 1 25.686V4.54717C1.0012 3.60677 1.3753 2.70523 2.04027 2.04027C2.70523 1.3753 3.60677 1.0012 4.54717 1H29.4528C30.3932 1.0012 31.2948 1.3753 31.9597 2.04027C32.6247 2.70523 32.9988 3.60677 33 4.54717V25.686C32.9988 26.6264 32.6247 27.528 31.9597 28.1929C31.2948 28.8579 30.3932 29.232 29.4528 29.2332ZM4.54717 2.0566C3.88663 2.0566 3.25315 2.319 2.78607 2.78607C2.319 3.25315 2.0566 3.88663 2.0566 4.54717V25.686C2.0566 26.3466 2.319 26.9801 2.78607 27.4471C3.25315 27.9142 3.88663 28.1766 4.54717 28.1766H29.4528C30.1134 28.1766 30.7469 27.9142 31.2139 27.4471C31.681 26.9801 31.9434 26.3466 31.9434 25.686V4.54717C31.9434 3.88663 31.681 3.25315 31.2139 2.78607C30.7469 2.319 30.1134 2.0566 29.4528 2.0566H4.54717Z" fill="#FFA428" stroke="#F5B455" stroke-width="0.5"/>
<path d="M32.4717 9.45962H1.5283C1.38819 9.45962 1.25381 9.40396 1.15474 9.30488C1.05566 9.20581 1 9.07143 1 8.93132C1 8.7912 1.05566 8.65683 1.15474 8.55775C1.25381 8.45868 1.38819 8.40302 1.5283 8.40302H32.4717C32.6118 8.40302 32.7462 8.45868 32.8453 8.55775C32.9443 8.65683 33 8.7912 33 8.93132C33 9.07143 32.9443 9.20581 32.8453 9.30488C32.7462 9.40396 32.6118 9.45962 32.4717 9.45962Z" fill="#FEA425" stroke="#F5B455" stroke-width="0.5"/>
<path d="M10.0264 6.93135C9.6958 6.93135 9.3726 6.83331 9.09769 6.64962C8.82278 6.46593 8.60851 6.20484 8.48199 5.89938C8.35546 5.59392 8.32236 5.2578 8.38686 4.93352C8.45136 4.60924 8.61058 4.31137 8.84437 4.07758C9.07816 3.84379 9.37603 3.68458 9.7003 3.62007C10.0246 3.55557 10.3607 3.58868 10.6662 3.7152C10.9716 3.84173 11.2327 4.056 11.4164 4.3309C11.6001 4.60581 11.6981 4.92902 11.6981 5.25965C11.6975 5.70283 11.5212 6.12768 11.2078 6.44106C10.8945 6.75443 10.4696 6.93075 10.0264 6.93135ZM10.0264 4.64456C9.90478 4.64456 9.78586 4.68063 9.68471 4.74822C9.58356 4.81581 9.50472 4.91187 9.45816 5.02426C9.41161 5.13666 9.39943 5.26033 9.42316 5.37965C9.44689 5.49897 9.50548 5.60857 9.5915 5.69459C9.67752 5.78061 9.78712 5.83919 9.90644 5.86293C10.0258 5.88666 10.1494 5.87448 10.2618 5.82792C10.3742 5.78137 10.4703 5.70253 10.5379 5.60138C10.6055 5.50023 10.6415 5.3813 10.6415 5.25965C10.6413 5.09658 10.5765 4.94024 10.4612 4.82493C10.3458 4.70962 10.1895 4.64476 10.0264 4.64456Z" fill="#FFAD2D"/>
<path d="M4.88976 6.91546C4.55892 6.91561 4.23546 6.81763 3.96031 6.63392C3.68516 6.4502 3.47068 6.18901 3.34401 5.88338C3.21733 5.57775 3.18414 5.24141 3.24865 4.91692C3.31316 4.59242 3.47246 4.29435 3.7064 4.06041C3.94035 3.82647 4.23842 3.66716 4.56291 3.60266C4.88741 3.53815 5.22374 3.57133 5.52937 3.69801C5.83501 3.82469 6.0962 4.03917 6.27991 4.31432C6.46363 4.58946 6.56161 4.91292 6.56146 5.24377C6.56106 5.687 6.38481 6.11197 6.07139 6.42539C5.75797 6.73881 5.333 6.91506 4.88976 6.91546ZM4.88976 4.62792C4.76793 4.62777 4.64878 4.66376 4.54741 4.73134C4.44603 4.79892 4.36698 4.89505 4.32025 5.00757C4.27352 5.12008 4.26122 5.24393 4.2849 5.36345C4.30858 5.48296 4.36717 5.59276 4.45327 5.67897C4.53937 5.76517 4.6491 5.8239 4.76858 5.84772C4.88807 5.87155 5.01193 5.8594 5.12451 5.81281C5.23708 5.76622 5.33331 5.68728 5.40101 5.58599C5.46872 5.4847 5.50486 5.3656 5.50486 5.24377C5.50466 5.08062 5.43981 4.92421 5.32452 4.80878C5.20924 4.69335 5.0529 4.62831 4.88976 4.62792Z" fill="#FFAD2D"/>
<path d="M15.1631 6.94716C14.8325 6.94701 14.5094 6.84884 14.2346 6.66506C13.9598 6.48128 13.7456 6.22014 13.6192 5.91467C13.4928 5.60919 13.4598 5.27309 13.5244 4.94886C13.589 4.62464 13.7483 4.32684 13.9821 4.09312C14.2159 3.85941 14.5138 3.70027 14.838 3.63583C15.1623 3.57138 15.4984 3.60453 15.8038 3.73108C16.1092 3.85763 16.3702 4.0719 16.5539 4.34679C16.7376 4.62168 16.8356 4.94486 16.8356 5.27546C16.8354 5.71889 16.6591 6.14409 16.3455 6.45757C16.0318 6.77106 15.6066 6.94716 15.1631 6.94716ZM15.1631 4.66036C15.0415 4.66051 14.9227 4.69671 14.8216 4.76439C14.7206 4.83207 14.6418 4.92819 14.5954 5.04059C14.549 5.153 14.5369 5.27665 14.5607 5.39592C14.5845 5.51519 14.6432 5.62471 14.7292 5.71066C14.8153 5.79661 14.9249 5.85512 15.0442 5.87879C15.1635 5.90246 15.2871 5.89024 15.3994 5.84366C15.5118 5.79708 15.6078 5.71824 15.6754 5.61711C15.7429 5.51597 15.779 5.39708 15.779 5.27546C15.7788 5.11226 15.7138 4.95581 15.5983 4.84048C15.4829 4.72514 15.3263 4.66036 15.1631 4.66036Z" fill="#FFAD2D"/>
</svg>
