<svg width="32" height="32" viewBox="0 0 32 32" fill="none" xmlns="http://www.w3.org/2000/svg">
<path d="M21.3334 10.6666H10.6667V21.3333H21.3334V10.6666Z" stroke="#F37F43" stroke-width="1.5" stroke-linecap="round" stroke-linejoin="round"/>
<path d="M6.66675 29.3334C8.86675 29.3334 10.6667 27.5334 10.6667 25.3334V21.3334H6.66675C4.46675 21.3334 2.66675 23.1334 2.66675 25.3334C2.66675 27.5334 4.46675 29.3334 6.66675 29.3334Z" stroke="#F37F43" stroke-width="1.5" stroke-linecap="round" stroke-linejoin="round"/>
<path d="M6.66675 10.6666H10.6667V6.66663C10.6667 4.46663 8.86675 2.66663 6.66675 2.66663C4.46675 2.66663 2.66675 4.46663 2.66675 6.66663C2.66675 8.86663 4.46675 10.6666 6.66675 10.6666Z" stroke="#F37F43" stroke-width="1.5" stroke-linecap="round" stroke-linejoin="round"/>
<path d="M21.3333 10.6666H25.3333C27.5333 10.6666 29.3333 8.86663 29.3333 6.66663C29.3333 4.46663 27.5333 2.66663 25.3333 2.66663C23.1333 2.66663 21.3333 4.46663 21.3333 6.66663V10.6666Z" stroke="#F37F43" stroke-width="1.5" stroke-linecap="round" stroke-linejoin="round"/>
<path d="M25.3333 29.3334C27.5333 29.3334 29.3333 27.5334 29.3333 25.3334C29.3333 23.1334 27.5333 21.3334 25.3333 21.3334H21.3333V25.3334C21.3333 27.5334 23.1333 29.3334 25.3333 29.3334Z" stroke="#F37F43" stroke-width="1.5" stroke-linecap="round" stroke-linejoin="round"/>
</svg>
