<svg width="30" height="30" viewBox="0 0 30 30" fill="none" xmlns="http://www.w3.org/2000/svg">
<path d="M6.25 18.75V10" stroke="#20AD96" stroke-width="1.5" stroke-linecap="round" stroke-linejoin="round"/>
<path d="M6.5625 27.5C8.80616 27.5 10.625 25.6812 10.625 23.4375C10.625 21.1938 8.80616 19.375 6.5625 19.375C4.31884 19.375 2.5 21.1938 2.5 23.4375C2.5 25.6812 4.31884 27.5 6.5625 27.5Z" stroke="#20AD96" stroke-width="1.5" stroke-linecap="round" stroke-linejoin="round"/>
<path d="M6.25 10C8.32107 10 10 8.32107 10 6.25C10 4.17893 8.32107 2.5 6.25 2.5C4.17893 2.5 2.5 4.17893 2.5 6.25C2.5 8.32107 4.17893 10 6.25 10Z" stroke="#20AD96" stroke-width="1.5" stroke-linecap="round" stroke-linejoin="round"/>
<path d="M23.75 10C25.8211 10 27.5 8.32107 27.5 6.25C27.5 4.17893 25.8211 2.5 23.75 2.5C21.6789 2.5 20 4.17893 20 6.25C20 8.32107 21.6789 10 23.75 10Z" stroke="#20AD96" stroke-width="1.5" stroke-linecap="round" stroke-linejoin="round"/>
<path d="M6.41248 18.75C6.97498 16.5625 8.97497 14.9375 11.3375 14.95L15.625 14.9625C18.9 14.975 21.6875 12.875 22.7125 9.94995" stroke="#20AD96" stroke-width="1.5" stroke-linecap="round" stroke-linejoin="round"/>
</svg>
